<?xml version="1.0" standalone="no"?><!DOCTYPE svg PUBLIC "-//W3C//DTD SVG 1.1//EN" "http://www.w3.org/Graphics/SVG/1.1/DTD/svg11.dtd"><svg t="1720490103763" class="icon" viewBox="0 0 1024 1024" version="1.1" xmlns="http://www.w3.org/2000/svg" p-id="4345" xmlns:xlink="http://www.w3.org/1999/xlink" width="200" height="200"><path d="M512 512m-388 0a388 388 0 1 0 776 0 388 388 0 1 0-776 0Z" fill="#FF7B15" p-id="4346"></path><path d="M372.31 423.511m-52.511 0a52.511 52.511 0 1 0 105.022 0 52.511 52.511 0 1 0-105.022 0Z" fill="#231815" p-id="4347"></path><path d="M651.69 423.511m-52.511 0a52.511 52.511 0 1 0 105.022 0 52.511 52.511 0 1 0-105.022 0Z" fill="#231815" p-id="4348"></path><path d="M510.431 637.01c-49.543 0-96.608-21.465-129.126-58.892-9.056-10.422-7.948-26.212 2.475-35.269 10.423-9.057 26.213-7.948 35.269 2.475 23.018 26.492 56.325 41.686 91.383 41.686 36.615 0 70.872-16.323 93.986-44.784 8.704-10.718 24.448-12.351 35.167-3.646 10.718 8.704 12.35 24.449 3.646 35.167-32.653 40.204-81.057 63.263-132.8 63.263z" fill="#FFFFFF" p-id="4349"></path></svg>